# xmcd
# 
# Track frame offsets:
#     183
#     10705
#     27353
#     39523
# 
# Disc length: 699
# 
# Revision: 0
# Processed by: cddbd v1.5.2PL0 Copyright (c) Steve Scherf et al.
# Submitted via: fre:ac v1.0.17
# 
DISCID=2302b904
DTITLE=The Dogs D'Amour - Satellite Kid
DYEAR=1989
DGENRE=Rock
TTITLE0=Satellite Kid
TTITLE1=Drunk Like Me (Acoustic)
TTITLE2=Poppies Fall
TTITLE3=She Thinks Too Much Of Me
EXTD=
EXTT0=
EXTT1=
EXTT2=
EXTT3=
PLAYORDER=
